<svg width="91" height="24" viewBox="0 0 91 24" fill="none" xmlns="http://www.w3.org/2000/svg">
<path d="M7.5 0L9.18386 8.2918H14.6329L10.2245 13.4164L11.9084 21.7082L7.5 16.5836L3.09161 21.7082L4.77547 13.4164L0.367076 8.2918H5.81614L7.5 0Z" fill="#EB9B00"/>
<path d="M26.5 0L28.1839 8.2918H33.6329L29.2245 13.4164L30.9084 21.7082L26.5 16.5836L22.0916 21.7082L23.7755 13.4164L19.3671 8.2918H24.8161L26.5 0Z" fill="#EB9B00"/>
<path d="M45.5 0L47.1839 8.2918H52.6329L48.2245 13.4164L49.9084 21.7082L45.5 16.5836L41.0916 21.7082L42.7755 13.4164L38.3671 8.2918H43.8161L45.5 0Z" fill="#EB9B00"/>
<path d="M64.5 0L66.1839 8.2918H71.6329L67.2245 13.4164L68.9084 21.7082L64.5 16.5836L60.0916 21.7082L61.7755 13.4164L57.3671 8.2918H62.8161L64.5 0Z" fill="#EB9B00"/>
<path d="M83.5 0L85.1839 8.2918H90.6329L86.2245 13.4164L87.9084 21.7082L83.5 16.5836L79.0916 21.7082L80.7755 13.4164L76.3671 8.2918H81.8161L83.5 0Z" fill="#EB9B00"/>
</svg>
